<?xml version="1.0" standalone="no"?><!DOCTYPE svg PUBLIC "-//W3C//DTD SVG 1.1//EN" "http://www.w3.org/Graphics/SVG/1.1/DTD/svg11.dtd"><svg t="1773295078079" class="icon" viewBox="0 0 1024 1024" version="1.1" xmlns="http://www.w3.org/2000/svg" p-id="19725" xmlns:xlink="http://www.w3.org/1999/xlink" width="200" height="200"><path d="M510.7328 528.896m-394.432 0a394.432 394.432 0 1 0 788.864 0 394.432 394.432 0 1 0-788.864 0Z" fill="#2E69B3" p-id="19726"></path><path d="M690.0352 611.968a95.6416 52.6208 90 1 0 105.2416 0 95.6416 52.6208 90 1 0-105.2416 0Z" fill="#FFFFFF" p-id="19727"></path><path d="M744.6656 573.3632c-4.992 0-9.0368-4.0448-9.0368-9.0368 0-151.8336-99.4176-275.3664-221.6192-275.3664s-221.6192 123.5328-221.6192 275.3664c0 4.992-4.0448 9.0368-9.0368 9.0368s-9.0368-4.0448-9.0368-9.0368c0-78.0288 24.704-151.4752 69.568-206.7968 45.312-55.872 105.728-86.6432 170.112-86.6432s124.8 30.7712 170.112 86.6432c44.864 55.3216 69.568 128.7552 69.568 206.7968 0.0128 4.992-4.032 9.0368-9.0112 9.0368z" fill="#FFFFFF" p-id="19728"></path><path d="M230.7328 611.968a95.6416 52.6208 90 1 0 105.2416 0 95.6416 52.6208 90 1 0-105.2416 0Z" fill="#FFFFFF" p-id="19729"></path><path d="M288.256 611.968a62.4 34.3296 90 1 0 68.6592 0 62.4 34.3296 90 1 0-68.6592 0Z" fill="#FFFFFF" p-id="19730"></path><path d="M322.5856 674.6368c-19.0848 0-34.5984-28.1088-34.5984-62.6688s15.5264-62.6688 34.5984-62.6688 34.5984 28.1088 34.5984 62.6688-15.5136 62.6688-34.5984 62.6688z m0-124.8128c-18.7904 0-34.0736 27.8784-34.0736 62.144s15.2832 62.144 34.0736 62.144 34.0736-27.8784 34.0736-62.144-15.2832-62.144-34.0736-62.144z" fill="#141515" p-id="19731"></path><path d="M312.9216 611.968a27.008 14.8608 90 1 0 29.7216 0 27.008 14.8608 90 1 0-29.7216 0Z" fill="#666666" p-id="19732"></path><path d="M662.8736 611.968a62.4 34.3296 90 1 0 68.6592 0 62.4 34.3296 90 1 0-68.6592 0Z" fill="#FFFFFF" p-id="19733"></path><path d="M697.2032 674.6368c-19.0848 0-34.5984-28.1088-34.5984-62.6688s15.5264-62.6688 34.5984-62.6688c19.0848 0 34.5984 28.1088 34.5984 62.6688s-15.5136 62.6688-34.5984 62.6688z m0-124.8128c-18.7904 0-34.0736 27.8784-34.0736 62.144s15.2832 62.144 34.0736 62.144 34.0736-27.8784 34.0736-62.144-15.2832-62.144-34.0736-62.144z" fill="#141515" p-id="19734"></path><path d="M675.1616 611.968a27.008 14.8608 90 1 0 29.7216 0 27.008 14.8608 90 1 0-29.7216 0Z" fill="#666666" p-id="19735"></path></svg>